<svg width="35" height="48" viewBox="0 0 35 48" fill="none" xmlns="http://www.w3.org/2000/svg">
<path d="M3.46552 47.9742L8.27586 18.7759H8.66379L17.3534 33.7759L25.5517 18.7759H25.9655L30.7759 48L25.5517 42.569L23.6121 32.0431L17.3276 43.3966L10.4224 31.8879L8.40517 42.569L3.46552 47.9742Z" fill="white"/>
<path d="M30.7759 18.7759L25.9914 48H25.6034L16.9138 33L8.71552 48H8.27586L3.46552 18.7759L8.68965 24.2069L10.6293 34.7328L16.9138 23.3793L23.819 34.8879L25.8362 24.2069L30.7759 18.7759Z" fill="white"/>
<path d="M0 0C0 0 8.27586 5.68965 10.0862 10.3448C11.8966 15 10.3448 14.7414 10.3448 14.7414C10.3448 14.7414 3.62069 11.8966 2.58621 10.3448C2.58621 10.3448 5.43103 11.8966 6.72414 12.1552C6.72414 12.1552 4.13793 9.31034 6.2069 8.27586C6.2069 8.27586 5.94828 5.17241 0 0Z" fill="white"/>
<path d="M34.2414 0C34.2414 0 25.9655 5.68965 24.1552 10.3448C22.3448 15 23.8966 14.7414 23.8966 14.7414C23.8966 14.7414 30.6207 11.8966 31.6552 10.3448C31.6552 10.3448 28.8104 11.8966 27.5172 12.1552C27.5172 12.1552 30.1035 9.31034 28.0345 8.27586C28.0345 8.27586 28.2931 5.17241 34.2414 0Z" fill="white"/>
<path d="M15.931 16.8103C15.931 16.8103 16.4483 14.4828 13.8621 12.931C13.8621 12.931 13.8621 14.2241 14.6379 14.7414C15.4138 15.2586 15.6724 15.7759 15.931 16.8103Z" fill="white"/>
<path d="M18.3104 16.8103C18.3104 16.8103 17.7931 14.4828 20.3793 12.931C20.3793 12.931 20.3793 14.2241 19.6035 14.7414C18.8276 15.2586 18.569 15.7759 18.3104 16.8103Z" fill="white"/>
</svg>
